<?xml version="1.0" standalone="no"?>
<!DOCTYPE svg PUBLIC "-//W3C//DTD SVG 20010904//EN"
 "http://www.w3.org/TR/2001/REC-SVG-20010904/DTD/svg10.dtd">
<svg version="1.0" xmlns="http://www.w3.org/2000/svg"
 width="200.000000pt" height="200.000000pt" viewBox="0 0 200.000000 200.000000"
 preserveAspectRatio="xMidYMid meet">

<g transform="translate(0.000000,200.000000) scale(0.100000,-0.100000)"
fill="#000000" stroke="none">
<path d="M860 1821 c-115 -37 -210 -140 -234 -253 -5 -23 -12 -28 -36 -28
l-30 0 0 -732 c0 -402 -2 -729 -5 -726 -3 2 -5 329 -5 726 0 463 -4 723 -10
727 -6 4 -10 -62 -10 -184 l0 -191 -60 0 -60 0 0 -114 c0 -62 -2 -142 -5 -177
-3 -35 -3 -58 1 -51 3 6 14 12 24 12 10 0 21 -6 23 -12 3 -7 6 2 6 20 1 26 -3
32 -19 32 -17 0 -20 7 -20 44 0 25 4 47 9 50 20 13 40 -7 44 -42 l4 -37 1 36
c2 40 23 57 42 34 6 -7 10 -29 8 -47 -3 -25 -10 -34 -26 -36 l-22 -3 0 -272 0
-272 -32 -2 c-18 -2 -36 3 -40 10 -4 6 -8 -48 -8 -120 0 -80 -4 -133 -10 -133
-6 0 -11 76 -13 193 l-2 192 -3 -192 c-2 -164 -4 -193 -17 -193 -10 0 -15 -11
-15 -35 l0 -35 640 0 640 0 0 34 c0 30 -3 35 -27 38 l-28 3 -5 265 -6 265 -3
-270 c-4 -240 -5 -212 -12 258 -4 290 -10 534 -13 542 -4 11 -21 15 -65 15
l-61 0 -3 193 c-1 105 -3 -138 -5 -541 -1 -486 -5 -731 -12 -727 -6 4 -10 55
-10 121 l0 114 -25 0 c-23 0 -25 4 -25 46 0 44 1 46 25 42 22 -5 25 -2 25 24
0 25 -3 28 -25 22 -24 -6 -25 -5 -25 46 0 50 1 52 25 48 22 -5 25 -2 25 22 0
23 -3 27 -24 23 -19 -4 -25 0 -29 18 -2 13 -5 -47 -6 -134 -1 -120 -4 -157
-13 -156 -7 1 -28 1 -46 0 l-33 -1 1 -97 c2 -135 1 -147 -7 -139 -4 4 -6 59
-4 122 l2 114 -33 1 c-18 1 -39 1 -45 0 -17 -2 -19 1204 -3 1214 7 4 10 -47
10 -147 l0 -153 30 0 c39 0 39 3 43 175 l3 135 2 -156 2 -156 35 1 35 1 0 153
c0 100 4 151 10 147 6 -4 11 -168 11 -453 1 -246 4 -434 6 -418 4 24 8 27 29
23 21 -4 24 0 24 23 0 24 -3 27 -25 22 -24 -4 -25 -2 -25 48 0 51 1 52 25 46
22 -6 25 -3 25 22 0 26 -3 29 -25 24 -24 -4 -25 -2 -25 46 0 50 7 58 38 39 9
-6 12 1 12 26 0 31 -2 34 -25 29 -24 -4 -25 -2 -25 43 0 45 1 47 25 43 23 -5
25 -2 25 30 0 28 -3 33 -12 24 -26 -26 -38 -13 -38 39 0 49 1 51 25 47 l25 -5
0 153 0 154 -29 0 c-25 0 -30 4 -36 38 -16 89 -84 173 -182 222 -40 21 -65 25
-143 27 -52 1 -106 -1 -120 -6z m-187 -583 c28 4 28 3 25 -45 -3 -42 -6 -48
-25 -48 -29 -1 -36 -9 -29 -33 5 -14 13 -18 31 -14 24 4 25 2 25 -43 0 -45 -1
-47 -25 -43 -31 6 -39 -5 -31 -38 6 -21 10 -24 21 -14 23 19 35 2 35 -47 0
-43 -1 -45 -25 -41 -18 4 -26 0 -30 -13 -9 -27 1 -37 30 -31 24 4 25 3 25 -48
0 -50 -1 -51 -27 -48 -24 3 -28 -1 -28 -22 0 -21 4 -25 28 -22 26 3 27 2 27
-48 0 -50 -1 -51 -27 -48 -24 3 -28 -1 -28 -22 0 -22 4 -25 28 -22 28 4 28 3
25 -45 -3 -44 -5 -48 -28 -48 -20 0 -25 -5 -25 -25 0 -21 4 -25 28 -22 26 3
27 2 27 -42 l0 -46 -35 3 -35 2 2 610 c1 336 5 540 8 455 l5 -155 28 3z m57
-428 c0 -480 -3 -730 -10 -730 -7 0 -10 250 -10 730 0 480 3 730 10 730 7 0
10 -250 10 -730z m80 123 l0 -608 -35 -2 -35 -3 0 46 c0 44 1 46 25 42 22 -5
25 -2 25 22 0 24 -3 27 -25 22 -24 -4 -25 -2 -25 48 0 50 1 52 25 48 22 -5 25
-2 25 22 0 24 -3 27 -25 22 -24 -4 -25 -2 -25 48 0 50 1 52 25 48 22 -5 25 -2
25 22 0 24 -3 27 -25 22 -24 -4 -25 -2 -25 48 0 50 1 52 25 48 22 -5 25 -2 25
22 0 24 -3 27 -25 22 -24 -4 -25 -2 -25 41 0 50 12 66 35 47 13 -11 15 -7 15
22 0 32 -2 35 -25 30 -24 -4 -25 -2 -25 43 0 45 1 47 25 43 23 -5 25 -2 25 30
0 28 -3 33 -12 24 -26 -26 -38 -13 -38 39 0 49 1 51 25 47 l25 -5 1 106 c1 58
0 123 -1 143 -1 35 5 58 16 58 2 0 4 -273 4 -607z m77 -491 c-1 -202 -2 -36
-2 368 0 404 1 570 2 367 2 -202 2 -532 0 -735z m80 181 c-1 -170 -2 -31 -2
307 0 338 1 477 2 308 2 -170 2 -446 0 -615z m91 864 c-1 -23 -1 -90 0 -148
l2 -106 25 5 c24 4 25 2 25 -48 0 -51 -1 -52 -25 -46 -22 6 -25 3 -25 -22 0
-26 3 -29 25 -24 24 4 25 2 25 -42 0 -38 -3 -46 -18 -46 -10 0 -22 4 -27 9 -6
6 -10 -5 -10 -30 0 -38 5 -46 19 -32 3 4 13 8 21 9 12 2 15 -9 15 -47 0 -41
-3 -49 -18 -49 -10 0 -22 4 -28 10 -7 7 -9 -2 -6 -25 4 -31 7 -34 28 -29 23 6
24 4 24 -45 0 -44 -3 -51 -20 -51 -10 0 -23 7 -27 15 -6 10 -9 3 -8 -24 0 -38
1 -39 28 -34 27 5 27 5 27 -46 0 -42 -3 -51 -18 -51 -10 0 -22 4 -28 10 -5 6
-9 -5 -9 -30 0 -25 4 -36 9 -30 6 6 18 10 28 10 15 0 18 -9 18 -50 0 -51 -7
-58 -39 -41 -15 8 -16 5 -13 -23 3 -29 7 -32 28 -28 23 4 24 2 24 -43 0 -46
-1 -47 -27 -43 l-28 4 3 -71 c2 -38 -1 -95 -6 -125 -7 -37 -10 188 -11 678 -1
506 2 731 9 727 6 -4 10 -25 8 -48z m-368 -12 c0 -19 -4 -35 -10 -35 -5 0 -10
16 -10 35 0 19 5 35 10 35 6 0 10 -16 10 -35z m90 -2 c0 -23 -5 -33 -15 -33
-10 0 -15 10 -15 33 0 23 5 34 15 34 10 0 15 -11 15 -34z m83 31 c3 -4 0 -16
-8 -26 -7 -11 -11 -27 -8 -34 3 -8 0 -14 -7 -14 -8 0 -10 9 -5 28 4 15 8 33 8
40 0 13 10 16 20 6z m405 -35 c2 -23 0 -30 -6 -20 -8 11 -10 11 -15 0 -3 -8
-6 3 -6 24 -1 49 23 46 27 -4z m-338 0 c0 -17 -4 -28 -10 -24 -5 3 -10 17 -10
31 0 13 5 24 10 24 6 0 10 -14 10 -31z m77 -16 c-3 -10 -5 -2 -5 17 0 19 2 27
5 18 2 -10 2 -26 0 -35z m89 -10 c-13 -33 -28 19 -16 57 1 3 6 -5 12 -17 6
-12 7 -30 4 -40z m71 10 c-3 -10 -5 -2 -5 17 0 19 2 27 5 18 2 -10 2 -26 0
-35z m-559 -102 c-2 -28 -7 -51 -13 -51 -11 0 -15 48 -7 93 8 47 23 15 20 -42z
m82 10 c0 -33 -4 -63 -10 -66 -6 -4 -10 18 -10 59 0 37 4 66 10 66 6 0 10 -26
10 -59z m80 -6 c0 -37 -4 -65 -10 -65 -6 0 -10 28 -10 65 0 37 4 65 10 65 6 0
10 -28 10 -65z m80 -1 c0 -41 -4 -63 -10 -59 -5 3 -10 33 -10 66 0 33 4 59 10
59 6 0 10 -29 10 -66z m88 -3 c-2 -28 -7 -52 -13 -54 -11 -2 -19 87 -10 111
11 31 26 -5 23 -57z m82 10 c0 -33 -4 -63 -10 -66 -6 -4 -10 18 -10 59 0 37 4
66 10 66 6 0 10 -26 10 -59z m80 -7 c0 -41 -4 -63 -10 -59 -5 3 -10 33 -10 66
0 33 4 59 10 59 6 0 10 -29 10 -66z m80 0 c0 -41 -4 -63 -10 -59 -18 11 -12
125 7 125 2 0 3 -30 3 -66z m90 1 c0 -30 -4 -57 -10 -60 -6 -4 -10 18 -10 60
0 42 4 64 10 60 6 -3 10 -30 10 -60z m80 6 c0 -33 -4 -63 -10 -66 -6 -4 -10
18 -10 59 0 37 4 66 10 66 6 0 10 -26 10 -59z m-732 -168 c-3 -40 -6 -48 -23
-48 -15 0 -21 8 -23 33 -5 45 3 62 28 62 19 0 21 -5 18 -47z m247 -3 c0 -38
-3 -45 -20 -45 -17 0 -20 8 -23 48 -3 46 -2 48 20 45 20 -3 23 -9 23 -48z m83
3 c-3 -40 -6 -48 -23 -48 -17 0 -20 8 -23 48 -3 45 -2 47 23 47 25 0 26 -2 23
-47z m80 0 c-3 -40 -6 -48 -23 -48 -15 0 -21 8 -23 33 -5 45 3 62 28 62 19 0
21 -5 18 -47z m-563 -138 c0 -34 -3 -40 -22 -43 -21 -3 -23 1 -23 43 0 42 2
46 23 43 19 -3 22 -9 22 -43z m63 22 c7 -34 -7 -67 -28 -67 -17 0 -20 7 -20
46 0 41 2 45 22 42 13 -2 24 -11 26 -21z m92 -22 c0 -41 -2 -45 -25 -45 -23 0
-25 4 -25 45 0 41 2 45 25 45 23 0 25 -4 25 -45z m250 0 c0 -41 -2 -45 -25
-45 -23 0 -25 4 -25 45 0 41 2 45 25 45 23 0 25 -4 25 -45z m80 0 c0 -41 -2
-45 -25 -45 -23 0 -25 4 -25 45 0 41 2 45 25 45 23 0 25 -4 25 -45z m80 0 c0
-41 -2 -45 -25 -45 -23 0 -25 4 -25 45 0 41 2 45 25 45 23 0 25 -4 25 -45z
m430 0 c0 -41 -2 -45 -25 -45 -23 0 -25 4 -25 45 0 41 2 45 25 45 23 0 25 -4
25 -45z m58 -2 c3 -40 1 -43 -22 -43 -24 0 -26 3 -26 46 0 41 2 45 23 42 18
-2 23 -10 25 -45z m-914 -89 c11 -4 16 -19 16 -50 0 -40 -2 -44 -25 -44 -23 0
-25 4 -25 43 0 54 6 62 34 51z m250 0 c11 -4 16 -19 16 -50 0 -40 -2 -44 -25
-44 -23 0 -25 4 -25 43 0 54 6 62 34 51z m96 -50 c0 -40 -2 -44 -25 -44 -23 0
-25 4 -25 44 0 27 5 46 13 49 26 9 37 -6 37 -49z m78 3 c3 -45 2 -47 -22 -47
-24 0 -26 3 -26 44 0 42 11 58 35 52 6 -1 11 -24 13 -49z m433 4 l2 -36 6 38
c3 21 9 38 14 37 4 0 14 0 23 0 12 0 14 -9 12 -42 -2 -36 -7 -44 -25 -46 l-23
-3 0 -276 c0 -287 -7 -367 -12 -132 l-3 134 -27 -3 c-27 -3 -28 -2 -28 48 0
48 2 51 23 48 17 -2 23 -11 28 -43 4 -30 6 -22 7 34 0 55 -2 71 -11 62 -6 -6
-19 -11 -29 -11 -15 0 -18 9 -18 51 0 49 1 51 25 47 21 -4 25 -1 25 18 0 17
-6 24 -20 24 -17 0 -20 7 -20 43 0 50 4 57 31 50 14 -4 19 -15 20 -42z m-926
-141 c0 -39 -3 -45 -22 -48 -21 -3 -23 1 -23 41 0 48 6 59 30 55 11 -2 15 -16
15 -48z m83 -3 c3 -46 2 -48 -20 -45 -18 2 -24 10 -26 36 -4 45 4 64 25 60 14
-2 19 -15 21 -51z m247 3 c0 -39 -3 -45 -22 -48 -21 -3 -23 0 -23 48 0 48 2
51 23 48 19 -3 22 -9 22 -48z m83 -3 c3 -45 2 -47 -22 -47 -24 0 -26 4 -26 43
0 48 6 59 30 55 10 -2 16 -17 18 -51z m82 2 c0 -47 -2 -50 -22 -47 -18 2 -24
11 -26 36 -4 45 3 62 28 62 17 0 20 -6 20 -51z m498 -2 c3 -45 2 -47 -22 -47
-24 0 -26 4 -26 43 0 48 6 59 30 55 10 -2 16 -17 18 -51z m-993 -137 c0 -39
-3 -45 -22 -48 -21 -3 -23 0 -23 48 0 48 2 51 23 48 19 -3 22 -9 22 -48z m80
0 c0 -38 -3 -45 -20 -45 -15 0 -21 8 -23 33 -4 45 4 64 25 60 14 -3 18 -13 18
-48z m250 0 c0 -39 -3 -45 -22 -48 -21 -3 -23 0 -23 48 0 48 2 51 23 48 19 -3
22 -9 22 -48z m85 0 c0 -47 -2 -50 -25 -50 -23 0 -25 3 -25 50 0 47 2 50 25
50 23 0 25 -3 25 -50z m80 -1 c0 -47 -2 -50 -22 -47 -18 2 -24 11 -26 36 -4
45 3 62 28 62 17 0 20 -6 20 -51z m495 1 c0 -38 -3 -45 -20 -45 -17 0 -20 8
-23 48 -3 46 -2 48 20 45 20 -3 23 -9 23 -48z m-990 -140 c0 -38 -3 -45 -20
-45 -17 0 -20 8 -23 48 -3 46 -2 48 20 45 20 -3 23 -9 23 -48z m83 3 c-3 -40
-6 -48 -23 -48 -17 0 -20 8 -23 48 -3 45 -2 47 23 47 25 0 26 -2 23 -47z m250
0 c-3 -40 -6 -48 -23 -48 -17 0 -20 8 -23 48 -3 45 -2 47 23 47 25 0 26 -2 23
-47z m80 0 c-3 -40 -6 -48 -23 -48 -17 0 -20 8 -23 48 -3 45 -2 47 23 47 25 0
26 -2 23 -47z m82 -4 c0 -47 -2 -50 -22 -47 -18 2 -24 11 -26 36 -4 45 3 62
28 62 17 0 20 -6 20 -51z m418 7 c3 -38 -8 -56 -35 -56 -9 0 -13 17 -13 51 0
47 2 50 23 47 18 -2 23 -10 25 -42z m80 -3 c-3 -40 -6 -48 -23 -48 -17 0 -20
8 -23 48 -3 45 -2 47 23 47 25 0 26 -2 23 -47z m-990 -140 c3 -40 1 -43 -22
-43 -24 0 -26 3 -26 46 0 41 2 45 23 42 18 -2 23 -10 25 -45z m82 2 c0 -41 -2
-45 -25 -45 -23 0 -25 4 -25 45 0 41 2 45 25 45 23 0 25 -4 25 -45z m250 0 c0
-41 -2 -45 -25 -45 -23 0 -25 4 -25 45 0 41 2 45 25 45 23 0 25 -4 25 -45z
m80 0 c0 -41 -2 -45 -25 -45 -23 0 -25 4 -25 45 0 41 2 45 25 45 23 0 25 -4
25 -45z m80 0 c0 -41 -2 -45 -25 -45 -23 0 -25 4 -25 45 0 41 2 45 25 45 23 0
25 -4 25 -45z m418 -2 c3 -40 1 -43 -22 -43 -24 0 -26 3 -26 46 0 41 2 45 23
42 18 -2 23 -10 25 -45z m82 2 c0 -41 -2 -45 -25 -45 -23 0 -25 4 -25 45 0 41
2 45 25 45 23 0 25 -4 25 -45z m-1023 -148 c12 -39 23 -85 25 -102 l3 -30 -62
-3 -63 -3 0 29 c0 26 34 154 47 175 13 22 30 -1 50 -66z m170 -2 c12 -39 22
-85 22 -103 l1 -33 -62 3 c-58 3 -63 5 -66 27 -2 13 1 33 6 45 5 12 18 47 28
79 24 76 42 72 71 -18z m152 27 c6 -26 17 -59 24 -73 7 -13 13 -37 12 -54 0
-30 -1 -30 -62 -33 l-63 -3 0 29 c0 26 34 154 47 175 12 20 30 2 42 -41z m169
-9 c13 -31 26 -79 29 -105 l6 -48 -67 0 c-66 0 -66 0 -66 29 0 30 13 76 36
128 8 17 14 36 14 42 0 6 6 11 13 11 6 0 22 -26 35 -57z m171 -15 c11 -40 21
-88 21 -105 l0 -33 -60 0 c-60 0 -60 0 -60 29 0 25 34 153 47 174 14 23 32 -1
52 -65z m168 -3 c12 -39 22 -85 22 -102 l1 -33 -61 0 -62 0 6 54 c7 74 38 157
57 154 8 -2 24 -33 37 -73z m157 18 c10 -32 23 -67 28 -79 5 -12 8 -32 6 -45
-3 -22 -8 -24 -67 -27 l-64 -3 6 48 c7 62 45 163 61 163 6 0 20 -26 30 -57z"/>
<path d="M1052 1060 c0 -14 2 -19 5 -12 2 6 2 18 0 25 -3 6 -5 1 -5 -13z"/>
<path d="M1452 785 c0 -16 2 -22 5 -12 2 9 2 23 0 30 -3 6 -5 -1 -5 -18z"/>
<path d="M1190 1151 c0 -9 -8 -11 -25 -7 -22 6 -25 3 -25 -21 0 -25 3 -28 32
-27 36 1 47 21 29 51 -7 12 -10 13 -11 4z"/>
<path d="M1274 1149 c-3 -6 -17 -8 -31 -4 -22 5 -24 3 -21 -21 3 -23 8 -27 36
-28 30 -1 32 1 32 32 0 33 -4 39 -16 21z"/>
<path d="M1140 981 c0 -30 2 -32 17 -20 18 16 23 16 34 -2 5 -9 10 -5 15 14 8
34 3 40 -36 41 -28 1 -30 -2 -30 -33z"/>
<path d="M1253 1013 c-27 -4 -33 -9 -33 -29 0 -19 4 -23 23 -20 12 2 28 -1 35
-6 9 -8 12 -2 12 26 0 20 -1 35 -2 34 -2 0 -18 -3 -35 -5z"/>
<path d="M374 866 c-3 -8 -4 -25 -2 -38 3 -17 5 -13 9 15 5 38 2 47 -7 23z"/>
<path d="M1140 849 c0 -24 3 -26 33 -24 26 2 32 7 32 25 0 19 -6 23 -33 24
-28 1 -32 -2 -32 -25z"/>
<path d="M1223 863 c-9 -23 3 -36 35 -38 29 -2 32 0 32 24 0 22 -4 26 -31 26
-17 0 -34 -5 -36 -12z"/>
<path d="M1554 750 c0 -74 1 -105 3 -67 2 37 2 97 0 135 -2 37 -3 6 -3 -68z"/>
<path d="M373 735 c0 -38 2 -53 4 -32 2 20 2 52 0 70 -2 17 -4 1 -4 -38z"/>
<path d="M401 705 c1 -27 3 -42 6 -32 4 14 12 18 29 14 21 -4 24 0 24 23 0 24
-3 27 -21 23 -12 -4 -25 0 -30 8 -6 9 -8 -4 -8 -36z"/>
<path d="M1140 709 c0 -24 3 -26 33 -24 26 2 32 7 32 25 0 19 -6 23 -33 24
-28 1 -32 -2 -32 -25z"/>
<path d="M1223 723 c-9 -23 3 -36 35 -38 29 -2 32 0 32 25 0 24 -4 27 -31 26
-17 -1 -34 -6 -36 -13z"/>
<path d="M401 585 c-1 -38 0 -40 29 -40 26 0 30 4 30 26 0 22 -4 26 -24 22
-17 -4 -25 0 -29 14 -3 10 -5 0 -6 -22z"/>
<path d="M373 540 c0 -41 2 -58 4 -37 2 20 2 54 0 75 -2 20 -4 3 -4 -38z"/>
<path d="M1140 571 c0 -23 4 -26 32 -25 27 1 33 5 33 24 0 18 -6 23 -32 25
-30 2 -33 0 -33 -24z"/>
<path d="M1223 583 c-9 -23 3 -36 35 -37 28 -1 32 2 32 25 0 23 -4 26 -31 25
-17 -1 -34 -6 -36 -13z"/>
<path d="M403 425 c0 -33 2 -49 4 -36 4 18 10 22 29 18 21 -4 24 0 24 25 0 25
-3 28 -24 22 -18 -4 -25 -1 -29 13 -3 10 -5 -9 -4 -42z"/>
<path d="M1140 431 c0 -23 4 -26 32 -25 27 1 33 5 33 24 0 18 -6 23 -32 25
-30 2 -33 0 -33 -24z"/>
<path d="M1222 431 c2 -20 9 -24 36 -25 28 -1 32 2 32 25 0 22 -4 25 -35 25
-32 0 -36 -3 -33 -25z"/>
<path d="M451 364 c0 -11 3 -14 6 -6 3 7 2 16 -1 19 -3 4 -6 -2 -5 -13z"/>
</g>
</svg>
