<?xml version="1.0" encoding="UTF-8"?>
<svg version="1.1" viewBox="0 0 121 70" xmlns="http://www.w3.org/2000/svg">
<g fill="none" fill-rule="evenodd">
<g transform="translate(0 10)" fill-rule="nonzero">
<g transform="translate(60.515 25) scale(-1 1) rotate(180) translate(-60.485 -24.913)">
<g transform="translate(.073824 .001678)">
<path d="m99.497 49.663h-78.17c-11.774 0-21.318-9.5525-21.318-21.335 0-11.783 9.5449-21.335 21.318-21.335h83.728c6.0009 0.0073315 11.725-2.5235 15.761-6.9675v28.302c0 5.6586-2.2454 11.086-6.2438 15.088-3.9984 4.0016-9.4215 6.2489-15.076 6.2489z" fill="#D21423"/>
<polygon points="12.414 20.684 13.915 20.684 16.56 16.399 16.499 20.684 18.164 20.684 18.164 13.868 16.652 13.868 14.018 18.016 14.079 13.868 12.414 13.868" fill="#fff"/>
<polygon points="21.258 20.684 22.993 20.684 22.993 13.867 21.258 13.867" fill="#fff"/>
<polygon points="26.089 20.684 29.876 20.684 29.876 19.151 27.752 19.151 27.752 18.093 29.804 18.093 29.804 16.559 27.752 16.559 27.752 15.394 29.876 15.394 29.876 13.861 26.089 13.861" fill="#fff"/>
<path d="m32.819 20.684h2.2983c1.3383 0 2.0637-0.25488 2.7265-0.96977 0.58347-0.64848 0.89431-1.4976 0.86745-2.3697 0-2.1154-1.2551-3.4749-3.2067-3.4749h-2.6855v6.8143zm2.4784-5.2834c1.0841 0 1.6743 0.65409 1.6743 1.8491 0 1.1949-0.6043 1.9009-1.6652 1.9009h-0.75469v-3.75h0.74564z" fill="#fff"/>
<polygon points="41.518 20.684 45.299 20.684 45.299 19.151 43.175 19.151 43.175 18.093 45.227 18.093 45.227 16.559 43.175 16.559 43.175 15.394 45.299 15.394 45.299 13.861 41.518 13.861" fill="#fff"/>
<path d="m48.246 20.684h2.1541c1.1266 0 1.6334-0.11285 2.0929-0.49179 0.54038-0.46562 0.8472-1.1467 0.83829-1.8599 0-1.1276-0.66205-1.9732-1.694-2.1467l1.8471-2.3204h-1.989l-1.5773 2.2074v-2.2074h-1.6654v6.8187h-0.0066076zm2.278-3.4231c0.71433 0 1.1447 0.35881 1.1447 0.9495 0 0.59083-0.38769 0.94016-1.1267 0.94016h-0.63289v-1.8897h0.61263 0.0022983z" fill="#fff"/>
<path d="m58.807 18.702c-0.060617 0.46893-0.2452 0.66544-0.62398 0.66544-0.31027 0.016388-0.57557-0.22181-0.59252-0.53233 0-0.2257 0.13301-0.41948 0.4394-0.59299 0.044816-0.030332 0.09308-0.054483 0.14422-0.072453l0.27493-0.13297 0.27493-0.12133 0.28613-0.1219c1.1126-0.52111 1.5773-1.0826 1.5773-1.9328 0-1.3394-0.8788-2.126-2.3797-2.126-1.5003 0-2.4784 0.83838-2.4784 2.167v0.22512h1.7463c0-0.56151 0.27493-0.91975 0.71419-0.91975 0.1751-0.0061814 0.34575 0.058365 0.47244 0.17912 0.12741 0.12133 0.20096 0.28809 0.20368 0.46332 0 0.31842-0.22552 0.55245-0.72539 0.75587-1.0617 0.4189-1.2462 0.51148-1.6042 0.79784-0.42317 0.34257-0.67109 0.85578-0.67627 1.4005 0 1.1456 1.041 2.0295 2.3791 2.0295 0.69853 0.018976 1.3702-0.26853 1.8388-0.78735 0.30639-0.35824 0.41915-0.69405 0.45046-1.3392h-1.7259l0.0044529-0.0046001z" fill="#fff"/>
<path d="m64.902 14.857-0.35638-0.99162h-1.8679l2.7265 6.8166h1.3791l2.7035-6.8166h-1.8814l-0.33785 0.99162h-2.3655zm1.9104 1.3803-0.71649 2.3293-0.71419-2.3293h1.4307z" fill="#fff"/>
<path d="m78.142 16.411c-0.37376-1.5836-1.7949-2.696-3.4205-2.6763-1.2843-0.041545-2.4896 0.61599-3.1505 1.7189-0.66047 1.1029-0.67224 2.4769-0.030883 3.5904 0.64179 1.1141 1.8359 1.7925 3.1202 1.7734 1.1014 0.026451 2.1502-0.47051 2.828-1.3398 0.33325-0.39863 0.55834-0.87719 0.65371-1.3887h-1.8186c-0.23615 0.7182-0.90954 1.2017-1.6652 1.1949-1.0207 0-1.8023-0.86814-1.8023-1.9935 0-1.1247 0.79736-2.0294 1.8274-2.0294 0.72554 0 1.2771 0.388 1.6447 1.1433h1.8185l-0.0044529 0.0067565z" fill="#fff"/>
<polygon points="80.98 20.684 82.718 20.684 82.718 18.129 84.944 18.129 84.944 20.684 86.681 20.684 86.681 13.868 84.944 13.868 84.944 16.596 82.718 16.596 82.718 13.868 80.98 13.868" fill="#fff"/>
<path d="m92.407 18.702c-0.061191 0.46893-0.24347 0.66544-0.62226 0.66544-0.31027 0.016388-0.57572-0.22181-0.59252-0.53233 0-0.2257 0.13301-0.41948 0.4394-0.59299 0.044242-0.030332 0.091931-0.054483 0.14192-0.072453l0.27723-0.13297 0.27493-0.12133 0.28613-0.1219c1.1132-0.52111 1.5772-1.0826 1.5772-1.9328 0-1.3394-0.87866-2.126-2.3796-2.126-1.5003 0-2.4784 0.83838-2.4784 2.167v0.22512h1.7461c0-0.56151 0.27493-0.91975 0.71433-0.91975 0.17567-0.0061814 0.3456 0.058365 0.47301 0.17912 0.12684 0.12133 0.20038 0.28809 0.20311 0.46332 0 0.31842-0.22552 0.55245-0.72554 0.75587-1.0609 0.4189-1.2461 0.51148-1.6042 0.79784-0.42303 0.34257-0.67052 0.85578-0.67612 1.4005 0 1.1456 1.0408 2.0295 2.3797 2.0295 0.69796 0.018976 1.3696-0.26853 1.8382-0.78735 0.30682-0.35824 0.41915-0.69405 0.45104-1.3392h-1.7259l0.0021546-0.0046001z" fill="#fff"/>
<polygon points="96.983 20.684 100.77 20.684 100.77 19.151 98.646 19.151 98.646 18.093 100.7 18.093 100.7 16.559 98.646 16.559 98.646 15.394 100.77 15.394 100.77 13.861 96.983 13.861" fill="#fff"/>
<polygon points="103.71 20.684 105.21 20.684 107.86 16.399 107.8 20.684 109.46 20.684 109.46 13.868 107.95 13.868 105.31 18.016 105.38 13.868 103.71 13.868" fill="#fff"/>
<path d="m12.414 35.488v-11.049h4.1392v6.0567l3.7582 0.45096v-6.5189h4.0758v15.106c-1.3517 0.75975-3.2852 1.2645-5.8764 1.2645-4.1701 0-6.0969-1.7065-6.0969-5.3099zm7.8974 1.9975v-3.9011l-3.7582-0.45096v2.3546c0 1.4859 0.59927 2.309 2.0525 2.309 0.85395 0 1.2642-0.085822 1.7057-0.31152z" fill="#fff"/>
<path d="m33.642 40.798c-2.5912 0-4.5068-0.50472-5.8764-1.2645v-15.088h4.0758v13.04c0.45046 0.2257 0.85395 0.31612 1.7057 0.31612 1.4532 0 2.0525-0.82099 2.0525-2.3091v-11.049h4.1392v11.049c0 3.5989-1.9291 5.3054-6.0969 5.3054z" fill="#fff"/>
<path d="m47.794 29.316v7.9824l1.8994 0.2257v3.3282l-1.8994-0.2257v3.8493l-3.8463-0.5457v-3.7927l-1.6558-0.20557v-3.3149l1.6558 0.20557v-7.9487c0-3.0036 1.5167-4.9 4.2969-4.9 0.94875 0 1.8023 0.25215 2.0525 0.45096v2.9313c-0.27436-0.097754-0.56279-0.15109-0.85395-0.15784-0.8607 0-1.6492 0.53678-1.6492 2.1175z" fill="#fff"/>
<path d="m58.53 40.798c-4.0421 0-6.3807-3.5265-6.3807-8.4512 0-5.3509 2.402-8.5417 6.8858-8.5417 2.2736 0 3.9474 0.4869 5.0224 1.2153l-0.91514 2.7689c-0.66434-0.39475-1.8314-0.85017-3.5686-0.85017-2.0278 0-3.0962 1.186-3.3486 3.5562l8.3704 1.0036c0.30696 5.7749-1.7687 9.2991-6.0656 9.2991zm-2.5591-7.7498c-0.032032 2.8863 0.94832 4.8888 2.4649 4.8888 1.5161 0 2.1473-1.5784 2.1473-4.348l-4.6122-0.54081z" fill="#fff"/>
<path d="m73.439 40.798c-2.5912 0-4.5062-0.50472-5.8764-1.2645v-15.088h4.0758v13.04c0.45118 0.2257 0.85395 0.31612 1.7057 0.31612 1.4532 0 2.0525-0.82099 2.0525-2.3091v-11.049h4.1393v11.049c-0.0022983 3.5989-1.9285 5.3054-6.097 5.3054z" fill="#fff"/>
<path d="m88.785 40.798c-2.5912 0-4.5062-0.50472-5.8758-1.2645v-15.088h4.0735v13.04c0.4506 0.2257 0.85409 0.31612 1.7057 0.31612 1.4534 0 2.0525-0.82099 2.0525-2.3091v-11.049h4.1393v11.049c0.0044452 3.5989-1.9224 5.3054-6.0953 5.3054z" fill="#fff"/>
<path d="m104.2 40.798c-4.045 0-6.3814-3.5265-6.3814-8.4512 0-5.3509 2.3998-8.5417 6.8859-8.5417 2.2736 0 3.9473 0.4869 5.0224 1.2153l-0.91687 2.7689c-0.66276-0.39475-1.832-0.85017-3.5692-0.85017-2.0278 0-3.0962 1.186-3.3481 3.5562l8.3706 1.0036c0.31759 5.7749-1.7691 9.2991-6.0633 9.2991zm-2.5597-7.7498c-0.031458 2.8863 0.94818 4.8888 2.4626 4.8888 1.5138 0 2.1473-1.5784 2.1473-4.348l-4.6099-0.54081z" fill="#fff"/>
</g>
</g>
</g>
</g>
</svg>
