<svg xmlns="http://www.w3.org/2000/svg" width="1000" height="1000" fill="none"><path fill="#4F80FF" d="M837.5 629.51a3.666 3.666 0 0 0 3.638-2.362 3.687 3.687 0 0 0 .232-1.518v-43a3.652 3.652 0 0 0-3.87-3.87H726.36V578l113.85-161.47a6.609 6.609 0 0 0 1.16-3.88v-42.59a3.664 3.664 0 0 0-1.062-2.811 3.645 3.645 0 0 0-2.808-1.069H669.06a3.66 3.66 0 0 0-3.87 3.88v43a3.652 3.652 0 0 0 3.87 3.87h106.48v.78L662.09 579.16a6.564 6.564 0 0 0-1.16 3.88v42.59a3.666 3.666 0 0 0 1.058 2.807 3.659 3.659 0 0 0 2.802 1.073H837.5ZM492.14 370.06c.78-2.33 2.32-3.87 5-3.87H546c2.71 0 4.26 1.54 5 3.87l89.07 255.63c.78 2.32 0 3.87-2.71 3.87H587c-2.71 0-4.25-1.16-5-3.87l-15.1-46.08h-92.18L460 625.69c-.78 2.71-2.32 3.87-5 3.87h-50.75c-2.72 0-3.49-1.55-2.72-3.87l90.61-255.63Zm59.25 161.09L521.58 439h-1.17l-29.81 92.15h60.79Zm-384.91 94.54a3.661 3.661 0 0 0 3.87 3.87h49.18a3.687 3.687 0 0 0 1.518-.232 3.687 3.687 0 0 0 1.29-.833 3.666 3.666 0 0 0 1.072-2.805V524.24a2.003 2.003 0 0 1 1.366-2.269c.309-.097.636-.118.954-.061h86a2 2 0 0 1 2.31 2.33v101.45a3.666 3.666 0 0 0 2.362 3.638 3.687 3.687 0 0 0 1.518.232h49.18a3.661 3.661 0 0 0 3.87-3.87V370.06a3.652 3.652 0 0 0-3.87-3.87h-49.21a3.664 3.664 0 0 0-2.811 1.062 3.645 3.645 0 0 0-1.069 2.808v98.74a2.048 2.048 0 0 1-2.31 2.33h-86a2.03 2.03 0 0 1-.941-.085 2.04 2.04 0 0 1-1.298-1.303 2.048 2.048 0 0 1-.081-.942v-98.74a3.66 3.66 0 0 0-3.88-3.87h-49.15a3.652 3.652 0 0 0-3.87 3.87v255.63ZM942.38 500c0 244.32-198.06 442.38-442.38 442.38S57.62 744.32 57.62 500 255.68 57.62 500 57.62 942.38 255.68 942.38 500Zm47.62 0c0-270.62-219.38-490-490-490S10 229.38 10 500s219.38 490 490 490 490-219.38 490-490Z"/></svg>